<svg xmlns="http://www.w3.org/2000/svg" xmlns:xlink="http://www.w3.org/1999/xlink" viewBox="0 0 367.92 284.88"><defs><linearGradient id="a" x1="102.04" y1="84.84" x2="274.5" y2="159.22" gradientUnits="userSpaceOnUse"><stop offset="0" stop-color="#00a0d2"/><stop offset="1" stop-color="#005397"/></linearGradient><linearGradient id="b" x1="237.03" y1="79.89" x2="106.92" y2="148.22" gradientUnits="userSpaceOnUse"><stop offset="0" stop-color="#80ba41"/><stop offset="1" stop-color="#527837"/></linearGradient><linearGradient id="c" x1="189.73" y1="181.57" x2="195.29" y2="69.43" gradientUnits="userSpaceOnUse"><stop offset="0" stop-color="#ffff3b"/><stop offset="1" stop-color="#a7a757"/></linearGradient><radialGradient id="d" cx="183.66" cy="116.61" r="74.19" gradientUnits="userSpaceOnUse"><stop offset="0" stop-color="#fff" stop-opacity="0.5"/><stop offset="0.08" stop-color="#d9d9d9" stop-opacity="0.43"/><stop offset="0.28" stop-color="#8c8c8c" stop-opacity="0.27"/><stop offset="0.47" stop-color="#4f4f4f" stop-opacity="0.15"/><stop offset="0.65" stop-color="#232323" stop-opacity="0.07"/><stop offset="0.83" stop-color="#090909" stop-opacity="0.02"/><stop offset="1" stop-opacity="0"/><stop offset="1" stop-color="#fff" stop-opacity="0"/></radialGradient></defs><title>Logo with Glyph Final</title><path d="M21.64,274.61a8,8,0,0,1-5,1.87,5.56,5.56,0,0,1-4.3-1.91,7.8,7.8,0,0,1-1.72-5.42,29.13,29.13,0,0,1,1.44-8.65,14.63,14.63,0,0,1,4.13-6.93A8.68,8.68,0,0,1,22,251.25a6.08,6.08,0,0,1,4.36,1.57,7.75,7.75,0,0,1,2,4.9l10.2-1.09A13.9,13.9,0,0,0,33.9,247c-2.8-2.44-6.53-3.66-11.22-3.66a22.32,22.32,0,0,0-11.88,3.31,20.58,20.58,0,0,0-8.11,9.06A28.57,28.57,0,0,0,0,267.92q0,7.92,4.45,12.44t12,4.52a19.53,19.53,0,0,0,11.7-3.62,22,22,0,0,0,7.62-10.58L25.37,269A12.1,12.1,0,0,1,21.64,274.61Z" fill="white"/><path d="M40.91,276.29a14.59,14.59,0,0,0,6.46,6.35,21.28,21.28,0,0,0,9.94,2.24q10.35,0,16.52-7A24.44,24.44,0,0,0,80,261.19c0-5.45-1.65-9.8-4.94-13s-7.86-4.84-13.71-4.84q-10.12,0-16.35,6.56t-6.22,17.58A18.89,18.89,0,0,0,40.91,276.29Zm24.18-3.48a9.11,9.11,0,0,1-7.4,3.78,7.59,7.59,0,0,1-5.83-2.51,9.52,9.52,0,0,1-2.32-6.76A22.26,22.26,0,0,1,51,259.79a13.85,13.85,0,0,1,4.19-6.24,9.62,9.62,0,0,1,6.17-2.15,7.62,7.62,0,0,1,5.73,2.3,8.43,8.43,0,0,1,2.23,6.11,20.19,20.19,0,0,1-4.26,13Z" fill="white"/><path d="M83.72,266.39a50.45,50.45,0,0,0-1.27,8.18,10.14,10.14,0,0,0,2.8,7.51,10.39,10.39,0,0,0,7.7,2.8q7.74,0,14.31-6.31L106.14,284h10l8.29-39.69H113.73l-4,18.91a34.84,34.84,0,0,1-1.54,5.61,16.26,16.26,0,0,1-2.16,3.74,16,16,0,0,1-2.62,2.52,12.16,12.16,0,0,1-2.84,1.64,7.65,7.65,0,0,1-2.8.54A4.47,4.47,0,0,1,94.56,276,4,4,0,0,1,93.29,273a36,36,0,0,1,.89-5.27l4.9-23.51H88.35Z" fill="white"/><path d="M122.46,284h10.72l2.62-12.44A54.5,54.5,0,0,1,139,260.43a14,14,0,0,1,4.46-5.59,9.51,9.51,0,0,1,5.63-2.09,9.09,9.09,0,0,1,3.1.52l4.11-8.78a12.54,12.54,0,0,0-5-1.16q-6.54,0-12.15,8.63l1.61-7.7h-10Z" fill="white"/><path d="M154,281.73q4.69,3.15,13.29,3.15t13.38-4.14a12.64,12.64,0,0,0,4.74-9.79,9.41,9.41,0,0,0-3.73-7.48Q179,261.27,171.17,259a35.07,35.07,0,0,1-6-2.1,2.86,2.86,0,0,1-1.5-2.46,3.21,3.21,0,0,1,1.48-2.58c1-.75,2.6-1.12,4.84-1.12a10.75,10.75,0,0,1,5.75,1.46,6.07,6.07,0,0,1,2.54,3.25l9.91-1.72a12.26,12.26,0,0,0-5-7.59q-3.93-2.81-11.59-2.8-9.65,0-14.53,4.74a10.88,10.88,0,0,0-3.52,8.11,9.33,9.33,0,0,0,3.63,7.63q2.31,1.86,12,5.08,3.63,1.2,4.45,2a2.81,2.81,0,0,1,.78,1.94,3.31,3.31,0,0,1-1.53,2.73,9.57,9.57,0,0,1-5.87,1.64,8.47,8.47,0,0,1-9-6l-10.39,1.64A15.71,15.71,0,0,0,154,281.73Z" fill="white"/><path d="M227.14,260.44q0-8.1-4.3-12.61t-11.58-4.5q-11.44,0-17.6,8.59a24.36,24.36,0,0,0-4.53,14.5q0,8.34,5,13.4t13,5.06A19.64,19.64,0,0,0,217.67,282a20.26,20.26,0,0,0,7.49-8.69l-9.6-1.61q-3,5.54-8.34,5.53a7.24,7.24,0,0,1-5.51-2.43,9,9,0,0,1-2.26-6.39c0-.22,0-.54,0-1h26.9a29.72,29.72,0,0,0,.75-7Zm-26.57.45a13.33,13.33,0,0,1,3.57-7.4,8.42,8.42,0,0,1,6-2.5,6.78,6.78,0,0,1,5.31,2.2q2,2.2,2,6.62c0,.25,0,.61,0,1.08Z" fill="white"/><path d="M231.16,281.45a19.83,19.83,0,0,0,11.7,3.4,21,21,0,0,0,8.76-1.7,12.54,12.54,0,0,0,5.53-4.54,10.69,10.69,0,0,0,1.82-5.8,10.09,10.09,0,0,0-3.22-7.54q-2-1.95-9.79-5.31a28.43,28.43,0,0,1-5.79-3,4.22,4.22,0,0,1-1.68-3.29,4.54,4.54,0,0,1,1.94-3.48,8.32,8.32,0,0,1,5.46-1.6,10,10,0,0,1,6.76,2.09,7.64,7.64,0,0,1,2.54,5.68l6.62-.45a12.05,12.05,0,0,0-4.06-9.1q-3.9-3.45-11.38-3.45-6.72,0-10.46,3.36a10.49,10.49,0,0,0-3.74,8.07,8.93,8.93,0,0,0,1.27,4.77,11.12,11.12,0,0,0,3.78,3.6,63.34,63.34,0,0,0,6.85,3.24q5.37,2.29,6.75,3.86a5,5,0,0,1,1.34,3.33,5.26,5.26,0,0,1-2.24,4.22c-1.49,1.2-3.74,1.8-6.72,1.8a11.65,11.65,0,0,1-5.63-1.31,7.13,7.13,0,0,1-3.31-3.37,12.51,12.51,0,0,1-.89-5l-6.77.42q-.25,7.65,4.56,11.06Z" fill="white"/><path d="M286,284h6.24l8.29-39.69h-6.76l-3.59,17.16a50.67,50.67,0,0,1-1.9,7.21,19.76,19.76,0,0,1-3.2,5.57,14.68,14.68,0,0,1-4.67,3.73,12,12,0,0,1-5.55,1.39,5.73,5.73,0,0,1-4-1.26,4.48,4.48,0,0,1-1.36-3.49,25.42,25.42,0,0,1,.67-4.93l5.31-25.38H268.7l-4.78,22.91a49,49,0,0,0-1.27,8.6,8.46,8.46,0,0,0,2.82,6.44,10.43,10.43,0,0,0,7.42,2.64q7.47,0,14.61-8.07Z" fill="white"/><path d="M315.48,236.83l1.61-7.67h-6.73l-1.61,7.67ZM305.65,284l8.3-39.69h-6.77L298.89,284Z" fill="white"/><path d="M324.13,278.91a3.32,3.32,0,0,1-2.26-.64,2.35,2.35,0,0,1-.69-1.83,41.71,41.71,0,0,1,.86-5l4.6-21.94h6.61l1.12-5.23h-6.65l3-14.42L323,234.51,321,244.26h-5.35l-1.08,5.23h5.34l-4.82,23.06a40.56,40.56,0,0,0-1,6,5,5,0,0,0,1.79,4.07,9.78,9.78,0,0,0,6.43,2A18.74,18.74,0,0,0,327,284l1.12-5.53a16.14,16.14,0,0,1-4,.45Z" fill="white"/><path d="M353.68,277a12.06,12.06,0,0,1-6.84,2.28,8,8,0,0,1-6.26-2.94c-1.71-1.95-2.56-4.79-2.56-8.5a16.41,16.41,0,0,1,.15-2.09h29.22a35.41,35.41,0,0,0,.53-6q0-7.62-4.24-12t-11.35-4.41a19.27,19.27,0,0,0-10.35,3,21.39,21.39,0,0,0-7.79,9.08,28.17,28.17,0,0,0-3,12.61,19.63,19.63,0,0,0,1.93,8.86,13.37,13.37,0,0,0,5.6,5.92,16.42,16.42,0,0,0,8.09,2A18,18,0,0,0,359,280.44q5.1-4.41,6.52-9.31l-6.58-.67A14.86,14.86,0,0,1,353.68,277Zm-9.1-25.42a12,12,0,0,1,7.9-3,8.57,8.57,0,0,1,6.54,2.7c1.7,1.81,2.54,4.41,2.54,7.8,0,.3,0,.79,0,1.49H339.25Q341,254.62,344.58,251.62Z" fill="white"/><path d="M218,36.29a53.75,53.75,0,0,0-11.7-17.52,55.08,55.08,0,0,0-11.26-8.67A53.89,53.89,0,0,0,168,2.82a53.3,53.3,0,0,0-14,1.87h0a116.39,116.39,0,0,0-14.49,4.88,117.82,117.82,0,0,0-13.68,6.72A117.25,117.25,0,0,0,76.2,72.87,119.38,119.38,0,0,0,67.12,118a118,118,0,0,0,8.65,45c5.61,13.77,14.76,25.82,25.87,36.93a54.31,54.31,0,0,1,0-76.57,53.83,53.83,0,0,1,24.33-14,54.74,54.74,0,0,1,28.26.13h0c1,.26,2,.49,3,.69A27.11,27.11,0,0,1,203.4,98c1-.86,2-1.75,2.91-2.69A53.65,53.65,0,0,0,218,77.82a54.51,54.51,0,0,0,0-41.53Z" fill="url(#a)"/><path d="M299.8,102.27a117.38,117.38,0,0,0-23.2-56,119.43,119.43,0,0,0-34.55-30.43,118,118,0,0,0-43.29-15C184-1.21,169,.69,153.84,4.75a54.32,54.32,0,0,1,66.29,38.32,53.74,53.74,0,0,1,0,28.07,54.69,54.69,0,0,1-14.24,24.4h0c-.82.83-1.61,1.68-2.36,2.56A27.12,27.12,0,0,1,191,142.71q.42,2.49,1.09,5a53.83,53.83,0,0,0,9.31,18.9,54.51,54.51,0,0,0,36,20.76,53.54,53.54,0,0,0,21-1.38,54.79,54.79,0,0,0,13.15-5.41,53.83,53.83,0,0,0,25.22-32.87h0a117.86,117.86,0,0,0,3-15,115.11,115.11,0,0,0,0-30.43Z" fill-rule="evenodd" fill="url(#b)"/><path d="M230.33,185.71A53.47,53.47,0,0,1,206,171.63a54.53,54.53,0,0,1-14-24.53h0c-.4-1.45-.88-2.87-1.4-4.28a27.11,27.11,0,0,1-33.31-32.61c-1.17-.4-2.36-.77-3.57-1.09a53.54,53.54,0,0,0-21-1.38,54.51,54.51,0,0,0-36,20.76,53.83,53.83,0,0,0-9.31,18.9,53.88,53.88,0,0,0,14,52.37h0a116.09,116.09,0,0,0,24.14,18.59,114.88,114.88,0,0,0,13.67,6.74A117.3,117.3,0,0,0,199.34,233,119.53,119.53,0,0,0,243,218.32a117.81,117.81,0,0,0,34.63-30c9.12-11.74,15-25.69,19.06-40.87A54.32,54.32,0,0,1,230.33,185.71Z" fill-rule="evenodd" fill="url(#c)"/><path d="M183.66,42.42a74.19,74.19,0,1,0,74.18,74.19A74.19,74.19,0,0,0,183.66,42.42Zm0,101.31a27.12,27.12,0,1,1,27.11-27.12A27.12,27.12,0,0,1,183.66,143.73Z" fill-rule="evenodd" fill="url(#d)"/></svg>